# xmcd
#
# Track frame offsets:
#	150
#	14870
#	27070
#	38670
#	53195
#	68490
#	84710
#
# Disc length: 1344 seconds
#
# Revision: 1
# Processed by: cddbd v1.5.1PL0 Copyright (c) Steve Scherf et al.
# Submitted via: CDex 1.50Beta5
#
DISCID=52053e07
DTITLE=ピンク・レディー - ピンク・レディー
DYEAR=1900
DGENRE=Pop
TTITLE0=ペッパー警部
TTITLE1=Ｓ・Ｏ・Ｓ
TTITLE2=渚のシンドバッド
TTITLE3=ＵＦＯ
TTITLE4=ウォンテッド（指名手配）
TTITLE5=カルメン’77
TTITLE6=サウスポー
EXTD=
EXTT0=
EXTT1=
EXTT2=
EXTT3=
EXTT4=
EXTT5=
EXTT6=
PLAYORDER=
